<svg viewBox="0 0 2355.38 835.995" style="clip-rule:evenodd;fill-rule:evenodd;image-rendering:optimizeQuality;shape-rendering:geometricPrecision;text-rendering:geometricPrecision" xmlns="http://www.w3.org/2000/svg" class="block dark:hidden h-12 cursor-pointer" alt="PaperMC"><path style="opacity:0.991" fill="#f6e245" d="M756.5 111.5c-.244 2.763-1.577 4.929-4 6.5a13646.808 13646.808 0 0 0-128 103.5h-17a477.48 477.48 0 0 1 17.5-20 16159.931 16159.931 0 0 0 105.5-110c1.574-1.13 3.241-1.298 5-.5a601.567 601.567 0 0 0 21 20.5z" transform="translate(-324.5 -90.505)"></path><path style="opacity:0.996" fill="#428eda" d="M824.5 117.5c.528 1.347.695 2.681.5 4a47135.52 47135.52 0 0 1-177.5 100c-4.202.317-8.202-.017-12-1a13532.726 13532.726 0 0 1 132-93.5c1.323-.816 1.989-1.983 2-3.5a842.378 842.378 0 0 1 39.5-27 202.003 202.003 0 0 1 6 6 233.334 233.334 0 0 0 9.5 15z" transform="translate(-324.5 -90.505)"></path><path style="opacity:1" fill="#a39731" d="m756.5 111.5 13 12c-.011 1.517-.677 2.684-2 3.5a13532.726 13532.726 0 0 0-132 93.5h-1c-3.228.914-6.561 1.247-10 1a13646.808 13646.808 0 0 1 128-103.5c2.423-1.571 3.756-3.737 4-6.5z" transform="translate(-324.5 -90.505)"></path><path style="opacity:1" fill="#94d405" d="M895.5 150.5a9219.713 9219.713 0 0 1-201 62.5c-3.764.852-7.097 2.352-10 4.5a367.77 367.77 0 0 1-14 4c-4.863.319-9.53-.014-14-1a22078.047 22078.047 0 0 1 178-84.5c1.256-.417 1.923-1.25 2-2.5a1077.45 1077.45 0 0 0 40.5-19 3.943 3.943 0 0 1 2 1 417.142 417.142 0 0 1 16.5 35z" transform="translate(-324.5 -90.505)"></path><path style="opacity:1" fill="#2b5f92" d="m824.5 117.5 12 16c-.077 1.25-.744 2.083-2 2.5a22078.047 22078.047 0 0 0-178 84.5h-1c-2.554.888-5.221 1.221-8 1a47135.52 47135.52 0 0 0 177.5-100c.195-1.319.028-2.653-.5-4z" transform="translate(-324.5 -90.505)"></path><path style="opacity:0.998" fill="#6a9401" d="M895.5 150.5a70.009 70.009 0 0 0 7 13c-.111.617-.444 1.117-1 1.5a20251.51 20251.51 0 0 1-217 52.5c2.903-2.148 6.236-3.648 10-4.5a9219.713 9219.713 0 0 0 201-62.5z" transform="translate(-324.5 -90.505)"></path><path style="opacity:1" fill="#fd4f57" d="M969.5 209.5a21771.748 21771.748 0 0 0-232 12h-67a367.77 367.77 0 0 0 14-4 20251.51 20251.51 0 0 0 217-52.5c.556-.383.889-.883 1-1.5a576.766 576.766 0 0 1 53-11.5c.829 1.816 1.663 3.649 2.5 5.5 3.858 17.421 7.691 34.754 11.5 52z" transform="translate(-324.5 -90.505)"></path><path style="opacity:1" fill="#b2363d" d="M969.5 209.5c1.781 3.7 2.781 7.7 3 12h-235a21771.748 21771.748 0 0 1 232-12z" transform="translate(-324.5 -90.505)"></path><path style="opacity:0.986" fill="#3c3b3b" d="M634.5 220.5h1c3.798.983 7.798 1.317 12 1 2.779.221 5.446-.112 8-1 2.071 1.309 4.571 1.975 7.5 2 2.69-.003 5.19-.336 7.5-1h362v154c-.99 8.484-1.33 17.151-1 26v27a34.29 34.29 0 0 0 1 11c-.99 6.145-1.32 12.478-1 19v55c-.33 76.404 0 152.738 1 229v70h-200a53.805 53.805 0 0 0-14 1c-6.145-.99-12.478-1.323-19-1h-12a300.7 300.7 0 0 0-49 0h-297v-184c.994-9.486 1.327-19.152 1-29 .166-9.006 0-18.006-.5-27-1.039-.744-1.539-1.744-1.5-3 .617.111 1.117.444 1.5 1 .5-11.995.667-23.995.5-36 .333-85.835-.001-171.502-1-257v-56h167c4.153.666 8.487.999 13 1 4.722-.008 9.055-.675 13-2z" transform="translate(-324.5 -90.505)"></path><path style="opacity:0.999" fill="#716c3e" d="M634.5 220.5c-3.945 1.325-8.278 1.992-13 2-4.513-.001-8.847-.334-13-1h16c3.439.247 6.772-.086 10-1z" transform="translate(-324.5 -90.505)"></path><path style="opacity:1" fill="#576c2c" d="M655.5 220.5h1c4.47.986 9.137 1.319 14 1-2.31.664-4.81.997-7.5 1-2.929-.025-5.429-.691-7.5-2z" transform="translate(-324.5 -90.505)"></path><path style="opacity:1" fill="#444" d="M455.5 237.5h562c.17 186.334 0 372.667-.5 559-93.43.666-186.93.999-280.5 1-93.57-.001-187.07-.334-280.5-1-.5-186.333-.667-372.666-.5-559z" transform="translate(-324.5 -90.505)"></path><path style="opacity:1" fill="#8c383d" d="M441.5 277.5c.999 85.498 1.333 171.165 1 257-1.174-1.014-1.84-2.347-2-4 .994-10.487 1.328-21.154 1-32v-221z" transform="translate(-324.5 -90.505)"></path><path style="opacity:1" fill="#b0363c" d="M441.5 277.5v221a7370.273 7370.273 0 0 1-12-219 188.78 188.78 0 0 1 12-2z" transform="translate(-324.5 -90.505)"></path><path style="opacity:1" fill="#fd4e57" d="M429.5 279.5a7370.273 7370.273 0 0 0 12 219c.328 10.846-.006 21.513-1 32a37998.332 37998.332 0 0 0-41-169c-.223-3.662-1.223-6.995-3-10 .106-2.579-.561-4.912-2-7a1976.064 1976.064 0 0 0-7.5-26 474.608 474.608 0 0 0-5-27 562.442 562.442 0 0 1 47.5-12z" transform="translate(-324.5 -90.505)"></path><path style="opacity:1" fill="#fefefe" d="M926.5 326.5a101.15 101.15 0 0 1-.5 22 55229.998 55229.998 0 0 0-65.5 328h-3a13119.954 13119.954 0 0 1-144-58.5c-4.508-1.951-9.174-2.618-14-2a6.978 6.978 0 0 0-2.5 3.5 1848.326 1848.326 0 0 0 0 86c.804 2.646 2.304 4.646 4.5 6-5.23 1.426-9.73.093-13.5-4-.667-32-.667-64 0-96a15150.256 15150.256 0 0 0 95.5-114 3575.987 3575.987 0 0 1 46-54.5 2799.329 2799.329 0 0 0-53 41.5 1033.784 1033.784 0 0 0-34 24.5 8688.269 8688.269 0 0 0-99 77 10.258 10.258 0 0 1-4 1.5 2778.922 2778.922 0 0 1-87-35.5c-5.553-3.919-7.553-9.085-6-15.5a14.698 14.698 0 0 1 3-3.5 98101.306 98101.306 0 0 0 365-209c3-.667 6-.667 9 0 1.442.377 2.442 1.21 3 2.5z" transform="translate(-324.5 -90.505)"></path><path style="opacity:1" fill="#dbdbdb" d="M926.5 326.5c4.293 1.974 5.96 5.307 5 10a32400.99 32400.99 0 0 0-56 333c-1.261 2.758-2.094 5.758-2.5 9-5.641 2.932-10.807 2.266-15.5-2h3a55229.998 55229.998 0 0 1 65.5-328 101.15 101.15 0 0 0 .5-22z" transform="translate(-324.5 -90.505)"></path><path style="opacity:1" fill="#2f2f2f" d="M861.5 683.5c10.246 1.088 14.912-3.579 14-14a32400.99 32400.99 0 0 1 56-333c2.041-2.435 4.374-2.602 7-.5 3.052 2.199 5.052 5.032 6 8.5a41137.19 41137.19 0 0 1-58.5 342c-4.025 2.893-8.525 3.726-13.5 2.5-3.996-1.331-7.663-3.165-11-5.5z" transform="translate(-324.5 -90.505)"></path><path style="opacity:0.997" fill="#6b9203" d="M394.5 344.5c1.439 2.088 2.106 4.421 2 7 .223 3.662 1.223 6.995 3 10a37998.332 37998.332 0 0 1 41 169c.16 1.653.826 2.986 2 4 .167 12.005 0 24.005-.5 36-.383-.556-.883-.889-1.5-1v-1c1.158-9.157 1.324-18.491.5-28a37178.669 37178.669 0 0 1-59.5-189 77.725 77.725 0 0 1 13-7z" transform="translate(-324.5 -90.505)"></path><path style="opacity:1" fill="#95d402" d="M381.5 351.5a37178.669 37178.669 0 0 0 59.5 189c.824 9.509.658 18.843-.5 28a16812.323 16812.323 0 0 0-75-157c-.457-.798-1.124-1.131-2-1a1011.378 1011.378 0 0 0-19-40.5c.259-1.261.926-2.261 2-3a462.899 462.899 0 0 1 35-15.5z" transform="translate(-324.5 -90.505)"></path><path style="opacity:1" fill="#a77626" d="M396.5 351.5c1.777 3.005 2.777 6.338 3 10-1.777-3.005-2.777-6.338-3-10z" transform="translate(-324.5 -90.505)"></path><path style="opacity:0.995" fill="#1f1f1f" d="M1611.5 598.5a112 112 0 0 0 4 18.5c-.17.833-.33 1.667-.5 2.5-2.17.988-4 2.321-5.5 4l-4 1c-16.73 5.609-33.73 6.443-51 2.5a909.815 909.815 0 0 1-12.5-45.5 968.618 968.618 0 0 0-62 7l-2.5 1c-1.54 3.95-2.87 7.95-4 12a418.425 418.425 0 0 1-12 34.5 8.43 8.43 0 0 1-4 .5 206.92 206.92 0 0 1-33-1.5c-8.19-1.581-14.85-5.415-20-11.5 28.96-80.92 57.63-161.92 86-243a37.35 37.35 0 0 1 6-11.5c16.8-9.722 33.63-9.889 50.5-.5a31261.432 31261.432 0 0 0 64.5 230zm-102-120c3.87 17.867 7.54 35.867 11 54a306.638 306.638 0 0 1-30 3.5c6.43-19.233 12.76-38.4 19-57.5z" transform="translate(-324.5 -90.505)"></path><path style="opacity:0.994" fill="#1f1f1f" d="M2665.5 442.5c-1.31.976-2.65 1.976-4 3-23-12.675-47.33-16.841-73-12.5-12.74 5.573-22.4 14.406-29 26.5-17.06 29.737-18.23 60.07-3.5 91 7.08 13.626 18.25 21.459 33.5 23.5a171.1 171.1 0 0 0 31-2 479.233 479.233 0 0 0 38-8c9.12 16.597 10.29 33.764 3.5 51.5a21.841 21.841 0 0 1-6.5 4 279.053 279.053 0 0 1-49 15.5c-30.11 3.295-57.11-4.371-81-23-19.28-18.725-30.44-41.559-33.5-68.5-3.85-35.469-.19-70.135 11-104a179.68 179.68 0 0 1 10.5-23c10.56-20.371 26.89-34.205 49-41.5 9.4-3.434 19.07-5.767 29-7 15.69-.717 31.35-.383 47 1 16.94 2.215 30.11 10.382 39.5 24.5 4.72 18.784.55 35.117-12.5 49z" transform="translate(-324.5 -90.505)"></path><path style="opacity:0.995" fill="#1f1f1f" d="M1427.5 512.5c-11.97 12.101-26.31 20.268-43 24.5a779.584 779.584 0 0 1-81 16.5c-.66 3.966-1 7.966-1 12a1117.823 1117.823 0 0 1-7 63 21.014 21.014 0 0 1-7 2c-17.15 5.622-33.15 3.455-48-6.5-1.3-.804-1.97-1.971-2-3.5a18123.86 18123.86 0 0 0 21-228c.6-2.627 1.1-5.293 1.5-8 5.83-3.833 11.67-7.667 17.5-11.5 36.9-4.119 73.9-5.452 111-4 17.87.505 33.37 6.672 46.5 18.5 5.57 7.471 9.23 15.804 11 25 3.08 24.147 1.75 48.147-4 72-2.87 10.75-8.04 20.083-15.5 28zm-47-28c-18.62 9.36-38.46 13.693-59.5 13l-12.5-1c2.48-19.97 4.81-39.97 7-60a371.767 371.767 0 0 1 42-.5c8.18.5 15.35 3.333 21.5 8.5 4.27 8.85 5.61 18.183 4 28-.84 4.014-1.67 8.014-2.5 12zM2360.5 514.5c.21 1.422.71 2.755 1.5 4l64.5-133c1.85-3.553 3.52-7.22 5-11 1.72-1.434 3.72-2.267 6-2.5 14.67-2.841 29.33-2.674 44 .5a54562.231 54562.231 0 0 1-16 259h-8a576.537 576.537 0 0 0-48-1v-9c1.78-37.02 3.61-74.02 5.5-111a353.596 353.596 0 0 0-9.5 24 6075.644 6075.644 0 0 0-41.5 94 9.175 9.175 0 0 1-4.5 2c-7.75 2.215-14.25.215-19.5-6-9.49-37.629-18.82-75.296-28-113a284.987 284.987 0 0 0-3.5 39c-1.95 27.005-3.95 54.005-6 81h-56c4.67-82.709 10-165.376 16-248-.29-3.606.04-7.106 1-10.5 19.68-6.175 39.18-5.675 58.5 1.5 12.94 46.656 25.78 93.323 38.5 140zM1806.5 513.5c-11.97 12.101-26.31 20.268-43 24.5a779.584 779.584 0 0 1-81 16.5c-.66 3.966-1 7.966-1 12a1117.823 1117.823 0 0 1-7 63 21.014 21.014 0 0 1-7 2c-17.15 5.622-33.15 3.455-48-6.5-1.3-.804-1.97-1.971-2-3.5a18123.86 18123.86 0 0 0 21-228c.6-2.627 1.1-5.293 1.5-8 5.83-3.833 11.67-7.667 17.5-11.5 36.9-4.119 73.9-5.452 111-4 17.87.505 33.37 6.672 46.5 18.5 5.57 7.471 9.23 15.804 11 25 3.08 24.147 1.75 48.147-4 72-2.87 10.75-8.04 20.083-15.5 28zm-47-28c-18.62 9.36-38.46 13.693-59.5 13l-12.5-1c2.48-19.97 4.81-39.97 7-60a371.767 371.767 0 0 1 42-.5c8.18.5 15.35 3.333 21.5 8.5 4.27 8.85 5.61 18.183 4 28-.84 4.014-1.67 8.014-2.5 12zM2219.5 507.5c-13.11 12.061-28.45 20.227-46 24.5-.95.718-1.12 1.551-.5 2.5 1.98 2.399 4.15 4.399 6.5 6a4629.685 4629.685 0 0 0 53.5 70c-1.62 5.89-4.79 10.89-9.5 15-11.15 9.873-24.15 13.373-39 10.5l-8-2a4163.187 4163.187 0 0 1-60.5-87.5c-7.14-.707-14.3-.374-21.5 1-.39 4.207-.39 8.207 0 12-2.56 23.301-5.06 46.635-7.5 70a103.692 103.692 0 0 1-7.5 3 107.479 107.479 0 0 1-29 1.5c-7.24-1.704-13.74-4.871-19.5-9.5a63.933 63.933 0 0 1 0-16c6.94-71.299 13.44-142.632 19.5-214a42.961 42.961 0 0 1 2-9 255.74 255.74 0 0 1 16-10.5 599.427 599.427 0 0 1 117-4c38.65 4.502 56.98 26.335 55 65.5a252.992 252.992 0 0 1-5.5 43c-2.87 10.75-8.04 20.083-15.5 28zm-47-28c-13.98 7.412-28.98 11.245-45 11.5-8.99.5-17.99.666-27 .5 1.71-17.717 3.71-35.383 6-53 17.03-2.724 34.03-2.557 51 .5 9.5 1.5 15 7 16.5 16.5.94 8.122.44 16.122-1.5 24zM2012.5 423.5h-109v13a296.786 296.786 0 0 0-2 32c31.01-.333 62.01 0 93 1 7.08 15.93 6.58 31.597-1.5 47-1.36.88-2.86 1.214-4.5 1h-92c.03 4.369-.3 8.702-1 13a742.495 742.495 0 0 1-3 40c38.67-.167 77.33 0 116 .5 9.52 19.982 8.52 39.482-3 58.5-.82.886-1.82 1.219-3 1-54.33.167-108.67 0-163-.5a29.612 29.612 0 0 1-4.5-2.5c-1.61-8.564-1.94-17.23-1-26 4.6-72.045 9.43-144.045 14.5-216-.01-5.138 1.99-9.305 6-12.5 55.34-.833 110.67-.667 166 .5 4.65 16.627 3.81 32.96-2.5 49-1.7.906-3.53 1.239-5.5 1z" transform="translate(-324.5 -90.505)"></path><path style="opacity:0.991" fill="#f6e245" d="M1032.5 375.5c42.1 40.495 84.44 80.829 127 121 1.13 1.574 1.3 3.241.5 5a1187.678 1187.678 0 0 0-25.5 26c-34.33-42-68.67-84-103-126-.33-8.849.01-17.516 1-26z" transform="translate(-324.5 -90.505)"></path><path style="opacity:0.826" fill="#fcfcfc" d="M1490.5 380.5c-28.37 81.08-57.04 162.08-86 243 5.15 6.085 11.81 9.919 20 11.5a206.92 206.92 0 0 0 33 1.5 96.376 96.376 0 0 1-5 12.5c-17.63 3.041-34.63 1.041-51-6-2.69-1.698-5.02-3.698-7-6a57316.678 57316.678 0 0 0 90.5-252.5 54.473 54.473 0 0 1 5.5-4z" transform="translate(-324.5 -90.505)"></path><path style="opacity:0.866" fill="#fefefe" d="M2262.5 383.5c-6 82.624-11.33 165.291-16 248h48c-.43 4.324-.76 8.658-1 13h-57c5.81-85.662 11.64-171.329 17.5-257 2.37-2.186 5.21-3.519 8.5-4z" transform="translate(-324.5 -90.505)"></path><path style="opacity:0.877" fill="#fefefe" d="M1848.5 385.5c-5.07 71.955-9.9 143.955-14.5 216-.94 8.77-.61 17.436 1 26 1.42.96 2.92 1.793 4.5 2.5 54.33.5 108.67.667 163 .5a50.585 50.585 0 0 1-6 12 4648.535 4648.535 0 0 1-167 .5c-4.3-1.935-6.3-5.268-6-10 5.3-77.823 10.47-155.656 15.5-233.5.35-4.056 1.68-7.723 4-11 1.26-2.107 3.1-3.107 5.5-3z" transform="translate(-324.5 -90.505)"></path><path style="opacity:0.734" fill="#f7f7f7" d="m2426.5 385.5-64.5 133a10.164 10.164 0 0 1-1.5-4c20.79-42.242 41.62-84.575 62.5-127 .82-1.323 1.98-1.989 3.5-2z" transform="translate(-324.5 -90.505)"></path><path style="opacity:0.857" fill="#fefefe" d="M1259.5 392.5a18123.86 18123.86 0 0 1-21 228c.03 1.529.7 2.696 2 3.5 14.85 9.955 30.85 12.122 48 6.5-.42 3.7-1.09 7.367-2 11-18.13 7.429-35.8 6.595-53-2.5-2.18-1.247-3.52-3.08-4-5.5 7.35-78.683 14.85-157.35 22.5-236a93.32 93.32 0 0 1 7.5-5z" transform="translate(-324.5 -90.505)"></path><path style="opacity:0.859" fill="#fefefe" d="M1638.5 393.5a18123.86 18123.86 0 0 1-21 228c.03 1.529.7 2.696 2 3.5 14.85 9.955 30.85 12.122 48 6.5-.15 4.163-1.15 7.996-3 11.5-13.81 4.989-27.81 5.655-42 2a62.811 62.811 0 0 1-13-7.5 63.013 63.013 0 0 1 0-14c1.5-1.679 3.33-3.012 5.5-4 .17-.833.33-1.667.5-2.5a112 112 0 0 1-4-18.5c6.52-66.518 13.02-133.185 19.5-200a93.32 93.32 0 0 1 7.5-5zM2050.5 394.5a17439.038 17439.038 0 0 1-19.5 214 63.933 63.933 0 0 0 0 16c5.76 4.629 12.26 7.796 19.5 9.5 9.75.811 19.42.311 29-1.5a150.81 150.81 0 0 1-2 10.5c-14.48 5.083-29.15 5.749-44 2a87.45 87.45 0 0 1-11-6c-1.44-1.126-2.11-2.626-2-4.5 7.19-78.74 14.85-157.407 23-236a37.187 37.187 0 0 1 7-4z" transform="translate(-324.5 -90.505)"></path><path style="opacity:1" fill="#a39730" d="M1031.5 401.5c34.33 42 68.67 84 103 126-3.69 4.026-7.36 8.026-11 12-2.91-1.739-5.41-4.072-7.5-7a5119.404 5119.404 0 0 0-84.5-119v-12z" transform="translate(-324.5 -90.505)"></path><path style="opacity:1" fill="#2d5f8f" d="M363.5 410.5c.876-.131 1.543.202 2 1a16812.323 16812.323 0 0 1 75 157v1c-.039 1.256.461 2.256 1.5 3 .5 8.994.666 17.994.5 27-1.406-.473-2.073-1.473-2-3 .664-2.646.998-5.479 1-8.5a31.73 31.73 0 0 0-1.5-10.5 11678.211 11678.211 0 0 1-87-156c-.671-.752-1.504-1.086-2.5-1a141.893 141.893 0 0 1 13-10z" transform="translate(-324.5 -90.505)"></path><path style="opacity:0.996" fill="#428dda" d="M1031.5 413.5a5119.404 5119.404 0 0 1 84.5 119c2.09 2.928 4.59 5.261 7.5 7a228.017 228.017 0 0 0 23.5 33c1.18 2.37 2.35 4.703 3.5 7-.03 1.529-.7 2.696-2 3.5a314.002 314.002 0 0 0-20 13.5c-1.52-.011-2.68-.677-3.5-2a6664.019 6664.019 0 0 0-93.5-166v-15z" transform="translate(-324.5 -90.505)"></path><path style="opacity:0.865" fill="#fdfdfd" d="M2513.5 416.5a179.68 179.68 0 0 0-10.5 23c-11.19 33.865-14.85 68.531-11 104 3.06 26.941 14.22 49.775 33.5 68.5 23.89 18.629 50.89 26.295 81 23a279.053 279.053 0 0 0 49-15.5 46.007 46.007 0 0 1-2.5 9c-21.94 12.144-45.44 19.144-70.5 21-52.75-2.935-85.25-29.935-97.5-81-6.37-37.533-4.04-74.533 7-111 4.59-15.181 11.75-28.848 21.5-41z" transform="translate(-324.5 -90.505)"></path><path style="opacity:0.996" fill="#408ddb" d="M350.5 420.5c.996-.086 1.829.248 2.5 1a11678.211 11678.211 0 0 0 87 156 31.73 31.73 0 0 1 1.5 10.5c-.002 3.021-.336 5.854-1 8.5a4931.605 4931.605 0 0 1-78.5-111c-1.129-1.641-2.629-2.641-4.5-3a2051.092 2051.092 0 0 1-31-44.5c.259-1.261.926-2.261 2-3a538.866 538.866 0 0 0 22-14.5z" transform="translate(-324.5 -90.505)"></path><path style="opacity:0.869" fill="#fcfcfc" d="M1380.5 484.5c.83-3.986 1.66-7.986 2.5-12 1.61-9.817.27-19.15-4-28-6.15-5.167-13.32-8-21.5-8.5a371.767 371.767 0 0 0-42 .5c-.16-2.687 0-5.354.5-8 .2-1.902 1.03-3.402 2.5-4.5a366.92 366.92 0 0 1 49-1c19.71 1.212 28.21 11.712 25.5 31.5a99.005 99.005 0 0 1-5 21c-1.61 3.775-4.11 6.775-7.5 9zM1759.5 485.5c.83-3.986 1.66-7.986 2.5-12 1.61-9.817.27-19.15-4-28-6.15-5.167-13.32-8-21.5-8.5a371.767 371.767 0 0 0-42 .5c-.16-2.687 0-5.354.5-8 .2-1.902 1.03-3.402 2.5-4.5a366.92 366.92 0 0 1 49-1c19.71 1.212 28.21 11.712 25.5 31.5a99.005 99.005 0 0 1-5 21c-1.61 3.775-4.11 6.775-7.5 9z" transform="translate(-324.5 -90.505)"></path><path style="opacity:0.875" fill="#fefefe" d="M2012.5 423.5c-.33 4.316-1.66 8.316-4 12-34.99 1-69.99 1.333-105 1v-13h109z" transform="translate(-324.5 -90.505)"></path><path style="opacity:0.873" fill="#fbfbfb" d="M2172.5 479.5c1.94-7.878 2.44-15.878 1.5-24-1.5-9.5-7-15-16.5-16.5-16.97-3.057-33.97-3.224-51-.5-.17-4.014 0-8.014.5-12a26.724 26.724 0 0 1 6.5-1.5 298.556 298.556 0 0 1 44-1c17.25.252 26.25 8.919 27 26-.25 9.516-2.75 18.35-7.5 26.5-1.13 1.641-2.63 2.641-4.5 3z" transform="translate(-324.5 -90.505)"></path><path style="opacity:0.86" fill="#fdfdfd" d="M2665.5 442.5c-2.68 6.673-6.85 12.34-12.5 17-23.38-13.747-48.21-17.914-74.5-12.5-7.05 3.183-13.38 7.35-19 12.5 6.6-12.094 16.26-20.927 29-26.5 25.67-4.341 50-.175 73 12.5 1.35-1.024 2.69-2.024 4-3z" transform="translate(-324.5 -90.505)"></path><path style="opacity:0.999" fill="#2b5e91" d="M1031.5 428.5a6664.019 6664.019 0 0 1 93.5 166c.82 1.323 1.98 1.989 3.5 2a62.446 62.446 0 0 1-15 10c-1.25-.077-2.08-.744-2.5-2a57900.6 57900.6 0 0 0-78.5-165 34.29 34.29 0 0 1-1-11z" transform="translate(-324.5 -90.505)"></path><path style="opacity:0.999" fill="#94d405" d="M1032.5 439.5a57900.6 57900.6 0 0 1 78.5 165c.42 1.256 1.25 1.923 2.5 2a3821.454 3821.454 0 0 0 19 41.5c-.26 1.261-.93 2.261-2 3a61.023 61.023 0 0 0-10 5 82.82 82.82 0 0 0-19 9c-1.63.494-3.3.66-5 .5a16037.855 16037.855 0 0 0-65-207c-.32-6.522.01-12.855 1-19z" transform="translate(-324.5 -90.505)"></path><path style="opacity:1" fill="#2f2f2f" d="M783.5 497.5a4808.633 4808.633 0 0 0-126 95.5c-4.774 2.28-8.774 1.446-12-2.5l131-106a2799.329 2799.329 0 0 1 53-41.5 3575.987 3575.987 0 0 0-46 54.5z" transform="translate(-324.5 -90.505)"></path><path style="opacity:0.872" fill="#fcfcfc" d="M1520.5 532.5a2225.743 2225.743 0 0 0-11-54 119.297 119.297 0 0 1 7.5-25c4.83 25.329 9.67 50.663 14.5 76-.32 1.147-.98 1.981-2 2.5a40.9 40.9 0 0 1-9 .5z" transform="translate(-324.5 -90.505)"></path><path style="opacity:0.998" fill="#6a9301" d="M1031.5 458.5a16037.855 16037.855 0 0 1 65 207 186.975 186.975 0 0 1-13 8 627.099 627.099 0 0 1-11-41c.09-2.652-.58-4.985-2-7a6831.81 6831.81 0 0 0-39-158v-9z" transform="translate(-324.5 -90.505)"></path><path style="opacity:1" fill="#fc4f56" d="M1031.5 467.5a6831.81 6831.81 0 0 1 39 158c-.09 2.652.58 4.985 2 7a627.099 627.099 0 0 0 11 41 5831.98 5831.98 0 0 0 13 51.5c-1.22 1.74-2.88 2.74-5 3a1254.52 1254.52 0 0 1-48 11.5 9088.45 9088.45 0 0 0-12-226v-46z" transform="translate(-324.5 -90.505)"></path><path style="opacity:1" fill="#a19632" d="M357.5 482.5c1.871.359 3.371 1.359 4.5 3a4931.605 4931.605 0 0 0 78.5 111c-.073 1.527.594 2.527 2 3 .327 9.848-.006 19.514-1 29 .166-6.675 0-13.342-.5-20a15763.525 15763.525 0 0 0-93.5-115 39.312 39.312 0 0 1 10-11z" transform="translate(-324.5 -90.505)"></path><path style="opacity:0.991" fill="#f5e245" d="M347.5 493.5a15763.525 15763.525 0 0 1 93.5 115c.5 6.658.666 13.325.5 20v1a8911.516 8911.516 0 0 1-81-76.5c-1.537-1.11-2.203-2.61-2-4.5a4.934 4.934 0 0 1-3-.5 1328.364 1328.364 0 0 0-31-30.5 217.664 217.664 0 0 1 18.5-21 30.786 30.786 0 0 0 4.5-3z" transform="translate(-324.5 -90.505)"></path><path style="opacity:0.829" fill="#fafafa" d="M2219.5 507.5c-9.03 16.018-22.37 27.018-40 33-2.35-1.601-4.52-3.601-6.5-6-.62-.949-.45-1.782.5-2.5 17.55-4.273 32.89-12.439 46-24.5z" transform="translate(-324.5 -90.505)"></path><path style="opacity:0.866" fill="#fefefe" d="M2409.5 621.5c-.98 3.125-1.31 6.458-1 10h49c-.09 4.357-.42 8.69-1 13h-57c2.04-36.664 4.04-73.331 6-110a353.596 353.596 0 0 1 9.5-24c-1.89 36.98-3.72 73.98-5.5 111z" transform="translate(-324.5 -90.505)"></path><path style="opacity:0.868" fill="#fbfbfb" d="M2359.5 630.5a80.555 80.555 0 0 1-5 11c-8.54 4.696-16.37 3.696-23.5-3-7.53-29.439-15.03-58.772-22.5-88a284.987 284.987 0 0 1 3.5-39c9.18 37.704 18.51 75.371 28 113 5.25 6.215 11.75 8.215 19.5 6z" transform="translate(-324.5 -90.505)"></path><path style="opacity:0.854" fill="#fbfbfb" d="M1427.5 512.5c-7.6 14.429-18.93 24.929-34 31.5a148.53 148.53 0 0 1-28 9l-48 11a68.79 68.79 0 0 1-15 1.5c0-4.034.34-8.034 1-12a779.584 779.584 0 0 0 81-16.5c16.69-4.232 31.03-12.399 43-24.5zM1806.5 513.5c-7.6 14.429-18.93 24.929-34 31.5a148.53 148.53 0 0 1-28 9l-48 11a68.79 68.79 0 0 1-15 1.5c0-4.034.34-8.034 1-12a779.584 779.584 0 0 0 81-16.5c16.69-4.232 31.03-12.399 43-24.5z" transform="translate(-324.5 -90.505)"></path><path style="opacity:0.892" fill="#fefefe" d="M1988.5 517.5a29.16 29.16 0 0 1-5 12.5c-29.33.5-58.66.667-88 .5.7-4.298 1.03-8.631 1-13h92z" transform="translate(-324.5 -90.505)"></path><path style="opacity:1" fill="#a7a7a7" d="m776.5 484.5-131 106c-2.767 2.418-5.767 2.584-9 .5a1846.647 1846.647 0 0 0-89-37c-4.581-3.438-6.081-7.938-4.5-13.5.66-1.824 1.827-3.157 3.5-4-1.553 6.415.447 11.581 6 15.5a2778.922 2778.922 0 0 0 87 35.5 10.258 10.258 0 0 0 4-1.5 8688.269 8688.269 0 0 1 99-77 1033.784 1033.784 0 0 1 34-24.5z" transform="translate(-324.5 -90.505)"></path><path style="opacity:1" fill="#af363c" d="M1031.5 513.5a9088.45 9088.45 0 0 1 12 226 33.085 33.085 0 0 0-11 3c-1-76.262-1.33-152.596-1-229z" transform="translate(-324.5 -90.505)"></path><path style="opacity:0.865" fill="#fcfcfc" d="M2223.5 625.5c-7.21 16.013-19.71 24.346-37.5 25a99.291 99.291 0 0 1-19.5-3.5 2773.308 2773.308 0 0 0-62-88.5 28.821 28.821 0 0 1-10 1c-.39-3.793-.39-7.793 0-12 7.2-1.374 14.36-1.707 21.5-1a4163.187 4163.187 0 0 0 60.5 87.5l8 2c14.85 2.873 27.85-.627 39-10.5z" transform="translate(-324.5 -90.505)"></path><path style="opacity:0.87" fill="#fcfcfc" d="M1605.5 624.5c1.04 2.614 1.54 5.28 1.5 8-12.25 7.562-25.58 10.896-40 10-7.59.109-15.09-.558-22.5-2a2227.04 2227.04 0 0 0-12-45c-1.17-.333-2.33-.667-3.5-1-18.5 2.376-37 4.709-55.5 7 1.13-4.05 2.46-8.05 4-12l2.5-1a968.618 968.618 0 0 1 62-7 909.815 909.815 0 0 0 12.5 45.5c17.27 3.943 34.27 3.109 51-2.5z" transform="translate(-324.5 -90.505)"></path><path style="opacity:1" fill="#aaa" d="M857.5 676.5c4.693 4.266 9.859 4.932 15.5 2 .406-3.242 1.239-6.242 2.5-9 .912 10.421-3.754 15.088-14 14a5886.431 5886.431 0 0 1-81-33c-2.756-1.704-5.756-3.037-9-4a938.372 938.372 0 0 0-64-27l-1 1a133.99 133.99 0 0 1 13.5 33 1460.16 1460.16 0 0 0 5.5 27c-2.743 3.925-4.743 8.258-6 13-4.943 5.774-10.443 11.108-16.5 16a2.428 2.428 0 0 0-.5 2h-1c-2.196-1.354-3.696-3.354-4.5-6a1848.326 1848.326 0 0 1 0-86 6.978 6.978 0 0 1 2.5-3.5c4.826-.618 9.492.049 14 2a13119.954 13119.954 0 0 0 144 58.5z" transform="translate(-324.5 -90.505)"></path><path style="opacity:1" fill="#959595" d="M771.5 646.5c-2.283.108-4.283.941-6 2.5a2868.928 2868.928 0 0 0-46 44.5c1.257-4.742 3.257-9.075 6-13a1460.16 1460.16 0 0 1-5.5-27 133.99 133.99 0 0 0-13.5-33l1-1a938.372 938.372 0 0 1 64 27z" transform="translate(-324.5 -90.505)"></path><path style="opacity:0.973" fill="#565656" d="M2409.5 621.5v9c16.18-.33 32.18.004 48 1h-49c-.31-3.542.02-6.875 1-10z" transform="translate(-324.5 -90.505)"></path><path style="opacity:1" fill="#bb6d31" d="M1070.5 625.5c1.42 2.015 2.09 4.348 2 7-1.42-2.015-2.09-4.348-2-7z" transform="translate(-324.5 -90.505)"></path><path style="opacity:1" fill="#2e2e2e" d="M771.5 646.5c3.244.963 6.244 2.296 9 4a5263.02 5263.02 0 0 0-64 59.5c-4.241 4.094-8.907 4.594-14 1.5a2.428 2.428 0 0 1 .5-2c6.057-4.892 11.557-10.226 16.5-16a2868.928 2868.928 0 0 1 46-44.5c1.717-1.559 3.717-2.392 6-2.5z" transform="translate(-324.5 -90.505)"></path><path style="opacity:1" fill="#4c5930" d="M738.5 812.5a300.7 300.7 0 0 1 49 0c0 .667-.333 1-1 1-11.154-.995-22.488-1.328-34-1h-14z" transform="translate(-324.5 -90.505)"></path><path style="opacity:1" fill="#b0363c" d="M508.5 812.5h229c-1.714 1.238-3.714 1.905-6 2-2.646-.664-5.479-.998-8.5-1-70.516 3.683-141.016 7.35-211.5 11-.997-3.979-1.997-7.979-3-12z" transform="translate(-324.5 -90.505)"></path><path style="opacity:0.997" fill="#6b9202" d="M737.5 812.5h15a6371.868 6371.868 0 0 1-171 54 141.305 141.305 0 0 1-6-12c1.348-1.98 3.348-3.147 6-3.5a12661.26 12661.26 0 0 0 150-36.5c2.286-.095 4.286-.762 6-2z" transform="translate(-324.5 -90.505)"></path><path style="opacity:0.999" fill="#95d401" d="M752.5 812.5c11.512-.328 22.846.005 34 1a373642.413 373642.413 0 0 0-143 67.5 14.698 14.698 0 0 0-3 3.5 594.693 594.693 0 0 0-40.5 19l-3-3a809.646 809.646 0 0 1-15.5-34 6371.868 6371.868 0 0 0 171-54z" transform="translate(-324.5 -90.505)"></path><path style="opacity:0.999" fill="#2d5f8e" d="M787.5 812.5h12a15853.002 15853.002 0 0 1-149 84 85.582 85.582 0 0 0-10-12 14.698 14.698 0 0 1 3-3.5c47.884-22.615 95.551-45.115 143-67.5.667 0 1-.333 1-1z" transform="translate(-324.5 -90.505)"></path><path style="opacity:0.997" fill="#408dda" d="M799.5 812.5c6.522-.323 12.855.01 19 1a296314.41 296314.41 0 0 1-103 72.5c-1.537 1.11-2.203 2.61-2 4.5a1051.036 1051.036 0 0 0-45 31 179.313 179.313 0 0 1-18-25 15853.002 15853.002 0 0 0 149-84z" transform="translate(-324.5 -90.505)"></path><path style="opacity:1" fill="#a19632" d="M832.5 812.5a201609.339 201609.339 0 0 1-108 87 106.628 106.628 0 0 1-11-9c-.203-1.89.463-3.39 2-4.5a296314.41 296314.41 0 0 0 103-72.5 53.805 53.805 0 0 1 14-1z" transform="translate(-324.5 -90.505)"></path><path style="opacity:0.992" fill="#f5e245" d="M832.5 812.5h29a5731 5731 0 0 1-108.5 114 218.01 218.01 0 0 1-28.5-27c36.039-29.011 72.039-58.011 108-87z" transform="translate(-324.5 -90.505)"></path><path style="opacity:1" fill="#fc4e56" d="M731.5 814.5a12661.26 12661.26 0 0 1-150 36.5c-2.652.353-4.652 1.52-6 3.5a3508.532 3508.532 0 0 1-52 12c-1.147-.318-1.981-.984-2.5-2a2834.361 2834.361 0 0 0-9.5-40c70.484-3.65 140.984-7.317 211.5-11 3.021.002 5.854.336 8.5 1z" transform="translate(-324.5 -90.505)"></path></svg>